<svg width="33" height="32" viewBox="0 0 33 32" fill="none" xmlns="http://www.w3.org/2000/svg">
<path opacity="0.4" d="M12.6667 2.66663C9.17337 2.66663 6.33337 5.50663 6.33337 8.99996C6.33337 12.4266 9.01337 15.2 12.5067 15.32C12.6134 15.3066 12.72 15.3066 12.8 15.32C12.8267 15.32 12.84 15.32 12.8667 15.32C12.88 15.32 12.88 15.32 12.8934 15.32C16.3067 15.2 18.9867 12.4266 19 8.99996C19 5.50663 16.16 2.66663 12.6667 2.66663Z" fill="black"/>
<path d="M19.44 18.8667C15.72 16.3867 9.65336 16.3867 5.9067 18.8667C4.21336 20 3.28003 21.5334 3.28003 23.1734C3.28003 24.8134 4.21336 26.3334 5.89336 27.4534C7.76003 28.7067 10.2134 29.3334 12.6667 29.3334C15.12 29.3334 17.5734 28.7067 19.44 27.4534C21.12 26.32 22.0534 24.8 22.0534 23.1467C22.04 21.5067 21.12 19.9867 19.44 18.8667Z" fill="black"/>
<path opacity="0.4" d="M27.3201 9.78664C27.5334 12.3733 25.6934 14.64 23.1468 14.9466C23.1334 14.9466 23.1334 14.9466 23.1201 14.9466H23.0801C23.0001 14.9466 22.9201 14.9466 22.8534 14.9733C21.5601 15.04 20.3734 14.6266 19.4801 13.8666C20.8534 12.64 21.6401 10.8 21.4801 8.79997C21.3868 7.71997 21.0134 6.7333 20.4534 5.8933C20.9601 5.63997 21.5468 5.47997 22.1468 5.42664C24.7601 5.19997 27.0934 7.14664 27.3201 9.78664Z" fill="black"/>
<path d="M29.9867 22.12C29.8801 23.4133 29.0534 24.5333 27.6667 25.2933C26.3334 26.0267 24.6534 26.3733 22.9867 26.3333C23.9467 25.4667 24.5067 24.3867 24.6134 23.24C24.7467 21.5867 23.9601 20 22.3867 18.7333C21.4934 18.0267 20.4534 17.4667 19.3201 17.0533C22.2667 16.2 25.9734 16.7733 28.2534 18.6133C29.4801 19.6 30.1067 20.84 29.9867 22.12Z" fill="black"/>
</svg>
