<svg width="33" height="32" viewBox="0 0 33 32" fill="none" xmlns="http://www.w3.org/2000/svg">
<path opacity="0.4" d="M14.3201 2.97333L7.66679 5.46668C6.13346 6.04001 4.88013 7.85333 4.88013 9.49333V19.4C4.88013 20.9733 5.92014 23.04 7.18681 23.9867L12.9201 28.2667C14.8001 29.68 17.8934 29.68 19.7734 28.2667L25.5068 23.9867C26.7735 23.04 27.8134 20.9733 27.8134 19.4V9.49333C27.8134 7.85333 26.5601 6.04001 25.0268 5.46668L18.3735 2.97333C17.2401 2.56 15.4268 2.56 14.3201 2.97333Z" fill="black"/>
<path d="M16.2002 15.0666C16.2269 15.0666 16.2535 15.0666 16.2802 15.0666H16.3069H16.3335C17.8669 15.0133 19.0669 13.7733 19.0802 12.2266C19.0802 10.6533 17.8002 9.37329 16.2269 9.37329C14.6536 9.37329 13.3735 10.6533 13.3735 12.2266C13.4002 13.76 14.6002 15.0133 16.2002 15.0666Z" fill="black"/>
<path d="M19.2535 17.88C17.6402 16.8133 15.0268 16.8133 13.4001 17.88C12.6535 18.3866 12.2135 19.1066 12.2135 19.8533C12.2135 20.6133 12.6401 21.3066 13.4001 21.8133C14.2135 22.3466 15.2668 22.6266 16.3202 22.6266C17.3735 22.6266 18.4402 22.36 19.2402 21.8133C19.9868 21.3066 20.4268 20.5866 20.4268 19.84C20.4402 19.08 20.0135 18.3866 19.2535 17.88Z" fill="black"/>
</svg>
